<?xml version="1.0" encoding="utf-8"?>
<!-- Generator: Adobe Illustrator 19.2.1, SVG Export Plug-In . SVG Version: 6.00 Build 0)  -->
<svg version="1.1" id="Слой_1" xmlns="http://www.w3.org/2000/svg" xmlns:xlink="http://www.w3.org/1999/xlink" x="0px" y="0px"
	 viewBox="0 0 28 28" style="enable-background:new 0 0 28 28;" xml:space="preserve">
<style type="text/css">
	.st0{fill:#F3600D;}
</style>
<g>
	<path class="st0" d="M24.7,9.6l-8.9-8.9C15.3,0.3,14.7,0,14,0H8.1C5.8,0,4,1.8,4,4.1v19.8C4,26.2,5.8,28,8.1,28h13.2
		c2.3,0,4.1-1.8,4.1-4.1V11.4C25.4,10.7,25.1,10.1,24.7,9.6z M15.5,2.8l7.1,7.1H18c-1.4,0-2.5-1.1-2.5-2.5V2.8z M21.3,26.4H8.1
		c-1.4,0-2.5-1.1-2.5-2.5V4.1c0-1.4,1.1-2.5,2.5-2.5h5.8v5.8c0,2.3,1.8,4.1,4.1,4.1h5.8v12.4C23.8,25.2,22.6,26.4,21.3,26.4z"/>
	<path class="st0" d="M19.6,22.2H9.8c-0.5,0-0.8,0.4-0.8,0.8c0,0.5,0.4,0.8,0.8,0.8h9.9c0.5,0,0.8-0.4,0.8-0.8
		C20.5,22.6,20.1,22.2,19.6,22.2z"/>
	<path class="st0" d="M19.6,18.1H9.8c-0.5,0-0.8,0.4-0.8,0.8c0,0.5,0.4,0.8,0.8,0.8h9.9c0.5,0,0.8-0.4,0.8-0.8
		C20.5,18.5,20.1,18.1,19.6,18.1z"/>
	<path class="st0" d="M19.6,14H9.8c-0.5,0-0.8,0.4-0.8,0.8c0,0.5,0.4,0.8,0.8,0.8h9.9c0.5,0,0.8-0.4,0.8-0.8
		C20.5,14.4,20.1,14,19.6,14z"/>
</g>
</svg>
