<?xml version="1.0" encoding="utf-8"?>
<!-- Generator: Adobe Illustrator 19.2.1, SVG Export Plug-In . SVG Version: 6.00 Build 0)  -->
<svg version="1.1" id="Слой_1" xmlns="http://www.w3.org/2000/svg" xmlns:xlink="http://www.w3.org/1999/xlink" x="0px" y="0px"
	 viewBox="0 0 28 28" style="enable-background:new 0 0 28 28;" xml:space="preserve">
<style type="text/css">
	.st0{fill:#ff0000;}
</style>
<g>
	<g>
		<path class="st0" d="M20.9,27.5c-0.4,0-0.9-0.1-1.2-0.3l-5.2-2.6c-0.3-0.1-0.6-0.1-0.8,0l-5.2,2.6c-1.1,0.6-2.6,0.3-3.4-0.7
			c-0.5-0.6-0.8-1.4-0.6-2.2l0.8-5.8c0-0.3-0.1-0.6-0.3-0.8l-4.1-4.2c-0.7-0.8-1-1.8-0.7-2.8c0.3-1,1.2-1.7,2.2-1.9l5.8-1
			c0.3,0,0.5-0.2,0.7-0.5l2.7-5.2C12,1.1,12.9,0.5,14,0.5s2,0.6,2.5,1.5l2.7,5.2c0.1,0.3,0.4,0.4,0.7,0.5l5.8,1
			c1,0.2,1.9,0.9,2.2,1.9c0.3,1,0.1,2.1-0.7,2.8l-4.1,4.2c-0.2,0.2-0.3,0.5-0.3,0.8l0.8,5.8c0.1,0.8-0.1,1.6-0.7,2.2
			C22.5,27.1,21.7,27.5,20.9,27.5z M14,22.6c0.4,0,0.9,0.1,1.2,0.3l5.2,2.6c0.4,0.2,0.9,0.1,1.1-0.2c0.1-0.1,0.3-0.4,0.2-0.7
			L21,18.7c-0.1-0.9,0.2-1.7,0.8-2.4l4.1-4.2c0.2-0.3,0.3-0.6,0.2-0.9c-0.1-0.2-0.2-0.5-0.7-0.6l-5.8-1c-0.9-0.1-1.6-0.7-2-1.5
			l-2.7-5.2c-0.3-0.6-1.3-0.6-1.7,0l-2.7,5.2c-0.4,0.8-1.2,1.3-2,1.5l-5.8,1C2.2,10.6,2,11,1.9,11.2c-0.1,0.3,0,0.7,0.2,0.9l4.1,4.2
			C6.8,17,7.1,17.8,7,18.7l-0.8,5.8c-0.1,0.4,0.1,0.6,0.2,0.7c0.3,0.3,0.7,0.4,1.1,0.2l5.2-2.6C13.1,22.7,13.6,22.6,14,22.6z"/>
	</g>
</g>
</svg>
