<svg id="artwork" xmlns="http://www.w3.org/2000/svg" xmlns:xlink="http://www.w3.org/1999/xlink" viewBox="0 0 155 45.93"><defs><style>.cls-1{fill:#a6a6a6;}.cls-10,.cls-2,.cls-3{fill:#fff;}.cls-2{stroke:#fff;stroke-miterlimit:10;stroke-width:0.2px;}.cls-4{fill:url(#Безымянный_градиент);}.cls-5{fill:url(#Безымянный_градиент_2);}.cls-6{fill:url(#Безымянный_градиент_3);}.cls-7{fill:url(#Безымянный_градиент_4);}.cls-8{opacity:0.2;}.cls-10,.cls-8,.cls-9{isolation:isolate;}.cls-9{opacity:0.12;}.cls-10{opacity:0.25;}</style><linearGradient id="Безымянный_градиент" x1="25.03" y1="888" x2="5.77" y2="907.27" gradientTransform="translate(0 -878)" gradientUnits="userSpaceOnUse"><stop offset="0" stop-color="#00a0ff"/><stop offset="0.01" stop-color="#00a1ff"/><stop offset="0.26" stop-color="#00beff"/><stop offset="0.51" stop-color="#00d2ff"/><stop offset="0.76" stop-color="#00dfff"/><stop offset="1" stop-color="#00e3ff"/></linearGradient><linearGradient id="Безымянный_градиент_2" x1="38.84" y1="900.96" x2="11.07" y2="900.96" gradientTransform="translate(0 -878)" gradientUnits="userSpaceOnUse"><stop offset="0" stop-color="#ffe000"/><stop offset="0.41" stop-color="#ffbd00"/><stop offset="0.78" stop-color="orange"/><stop offset="1" stop-color="#ff9c00"/></linearGradient><linearGradient id="Безымянный_градиент_3" x1="28.51" y1="903.6" x2="2.37" y2="929.72" gradientTransform="translate(0 -878)" gradientUnits="userSpaceOnUse"><stop offset="0" stop-color="#ff3a44"/><stop offset="1" stop-color="#c31162"/></linearGradient><linearGradient id="Безымянный_градиент_4" x1="8.38" y1="878.21" x2="20.04" y2="889.87" gradientTransform="translate(0 -878)" gradientUnits="userSpaceOnUse"><stop offset="0" stop-color="#32a071"/><stop offset="0.07" stop-color="#2da771"/><stop offset="0.48" stop-color="#15cf74"/><stop offset="0.8" stop-color="#06e775"/><stop offset="1" stop-color="#00f076"/></linearGradient></defs><title>Монтажная область 1</title><rect width="155" height="45.93" rx="5.74" ry="5.74"/><path class="cls-1" d="M149.26.92a4.82,4.82,0,0,1,4.82,4.82V40.19A4.82,4.82,0,0,1,149.26,45H5.74A4.82,4.82,0,0,1,.92,40.19h0V5.74A4.82,4.82,0,0,1,5.74.92H149.26m0-.92H5.74A5.74,5.74,0,0,0,0,5.74V40.19a5.74,5.74,0,0,0,5.74,5.74H149.26A5.74,5.74,0,0,0,155,40.19V5.74A5.74,5.74,0,0,0,149.26,0Z"/><path class="cls-2" d="M54.45,11.76a3.11,3.11,0,0,1-.86,2.3,3.34,3.34,0,0,1-2.53,1,3.62,3.62,0,0,1-2.54-6.17,3.44,3.44,0,0,1,2.54-1,3.56,3.56,0,0,1,1.41.29,2.84,2.84,0,0,1,1.08.77l-.61.61a2.3,2.3,0,0,0-1.88-.82,2.66,2.66,0,0,0-2.68,2.65s0,.07,0,.1a2.71,2.71,0,0,0,4.59,2,2.17,2.17,0,0,0,.57-1.4H51.06v-.83H54.4A2.92,2.92,0,0,1,54.45,11.76Z"/><path class="cls-2" d="M59.7,8.89H56.6v2.18h2.82v.83H56.6v2.18h3.1v.85h-4V8h4Z"/><path class="cls-2" d="M63.47,14.93h-.88v-6H60.66V8h4.79v.85h-2Z"/><path class="cls-2" d="M68.82,14.93V8h.88v6.89Z"/><path class="cls-2" d="M73.63,14.93h-.88v-6H70.82V8h4.73v.85H73.63Z"/><path class="cls-2" d="M84.52,14a3.58,3.58,0,0,1-5.05,0,3.72,3.72,0,0,1,0-5.11,3.56,3.56,0,0,1,5,0l0,0A3.71,3.71,0,0,1,84.52,14Zm-4.4-.57a2.65,2.65,0,0,0,3.74,0,2.94,2.94,0,0,0,0-3.95,2.65,2.65,0,0,0-3.74,0A2.94,2.94,0,0,0,80.12,13.46Z"/><path class="cls-2" d="M86.78,14.93V8h1.08l3.35,5.36h0V8h.88v6.89h-.92l-3.5-5.61h0v5.61Z"/><path class="cls-3" d="M78.23,25a4.88,4.88,0,1,0,4.9,4.88A4.81,4.81,0,0,0,78.4,25Zm0,7.84A3,3,0,1,1,81,29.65q0,.1,0,.2a2.82,2.82,0,0,1-2.68,3ZM67.55,25a4.88,4.88,0,1,0,4.89,4.88A4.81,4.81,0,0,0,67.7,25h-.15Zm0,7.84a3,3,0,1,1,2.74-3.17q0,.1,0,.21a2.82,2.82,0,0,1-2.68,3h-.06ZM54.81,26.48v2.07h5a4.33,4.33,0,0,1-1.15,2.61,5.07,5.07,0,0,1-3.82,1.52,5.51,5.51,0,0,1,0-11,5.28,5.28,0,0,1,3.75,1.48L60,21.67a7.22,7.22,0,0,0-5.2-2.15,7.59,7.59,0,1,0-.59,15.17h.59a6.7,6.7,0,0,0,7.08-7,6.74,6.74,0,0,0-.11-1.3Zm52,1.61a4.5,4.5,0,0,0-8.78,1.47q0,.15,0,.3a4.78,4.78,0,0,0,4.67,4.88h.17A4.86,4.86,0,0,0,107,32.57l-1.66-1.15a2.79,2.79,0,0,1-2.4,1.35,2.48,2.48,0,0,1-2.37-1.48l6.53-2.7Zm-6.66,1.63a2.68,2.68,0,0,1,2.49-2.84h.05a1.89,1.89,0,0,1,1.81,1Zm-5.3,4.73H97V20.09H94.87Zm-3.51-8.38h-.08a3.44,3.44,0,0,0-2.57-1.15,4.89,4.89,0,0,0,0,9.77,3.33,3.33,0,0,0,2.57-1.15h.07v.7c0,1.87-1,2.87-2.61,2.87a2.7,2.7,0,0,1-2.46-1.73l-1.87.78A4.65,4.65,0,0,0,88.74,39c2.51,0,4.59-1.48,4.59-5.09V25.26h-2ZM88.9,32.81a3,3,0,0,1,0-5.92,2.76,2.76,0,0,1,2.61,2.89v.07a2.73,2.73,0,0,1-2.49,3H88.9Zm28-12.72h-5.13V34.44h2.15V29h3a4.47,4.47,0,1,0,0-8.91Zm0,6.89h-3V22.09h3a2.46,2.46,0,0,1,0,4.93Zm13.24-2.07a4,4,0,0,0-3.82,2.19l1.91.79a2,2,0,0,1,2-1.06,2.07,2.07,0,0,1,2.29,1.81v.18a4.74,4.74,0,0,0-2.24-.55c-2.06,0-4.13,1.15-4.13,3.23a3.32,3.32,0,0,0,3.47,3.16h.09a3,3,0,0,0,2.76-1.38h.07v1.15h2.07V28.92c0-2.51-1.91-4-4.35-4Zm-.26,7.86c-.7,0-1.68-.36-1.68-1.22,0-1.15,1.22-1.53,2.3-1.53a3.81,3.81,0,0,1,2,.48,2.59,2.59,0,0,1-2.51,2.3Zm12.2-7.52-2.46,6.22h-.07L137,25.26h-2.3l3.82,8.7-2.18,4.83h2.24l5.88-13.54Zm-19.3,9.19h2.15V20.09h-2.15Z"/><path class="cls-4" d="M12,8.66a2.3,2.3,0,0,0-.53,1.61v25.4A2.3,2.3,0,0,0,12,37.27l.08.08L26.29,23.14V22.8L12.07,8.58Z"/><path class="cls-5" d="M31,27.88l-4.71-4.74V22.8L31,18l.1.06,5.64,3.2c1.61.91,1.61,2.4,0,3.32l-5.61,3.19Z"/><path class="cls-6" d="M31.14,27.81,26.29,23,12,37.27a1.87,1.87,0,0,0,2.39.07l16.77-9.53"/><path class="cls-7" d="M31.14,18.12,14.36,8.59A1.87,1.87,0,0,0,12,8.66L26.29,23Z"/><path class="cls-8" d="M31,27.7,14.36,37.18a1.92,1.92,0,0,1-2.3,0h0l-.08.08h0l.08.08h0a1.91,1.91,0,0,0,2.3,0l16.77-9.53Z"/><path class="cls-9" d="M12,37.11a2.3,2.3,0,0,1-.53-1.61v.17A2.3,2.3,0,0,0,12,37.28l.08-.08Z"/><path class="cls-9" d="M36.74,24.46,31,27.7l.1.1,5.64-3.19A2,2,0,0,0,37.89,23h0A2.14,2.14,0,0,1,36.74,24.46Z"/><path class="cls-10" d="M14.36,8.75,36.74,21.47A2.14,2.14,0,0,1,37.89,23h0a2,2,0,0,0-1.15-1.65L14.36,8.59c-1.61-.91-2.92-.15-2.92,1.69v.17C11.48,8.6,12.77,7.84,14.36,8.75Z"/></svg>