<?xml version="1.0" encoding="utf-8"?>
<!-- Generator: Adobe Illustrator 19.2.1, SVG Export Plug-In . SVG Version: 6.00 Build 0)  -->
<svg version="1.1" id="Слой_1" xmlns="http://www.w3.org/2000/svg" xmlns:xlink="http://www.w3.org/1999/xlink" x="0px" y="0px"
	 viewBox="0 0 28 28" style="enable-background:new 0 0 28 28;" xml:space="preserve">
<style type="text/css">
	.st0{fill:#ff0000;}
</style>
<path class="st0" d="M27.2,19.5c0-0.5-0.4-0.8-0.8-0.8c-1.4,0-2.5-1.1-2.5-2.5v-3.4c0-4.9-3.7-8.9-8.5-9.3V0.9
	c0-0.5-0.4-0.8-0.8-0.8s-0.8,0.4-0.8,0.8v2.6c-4.7,0.4-8.5,4.4-8.5,9.3v3.4c0,1.4-1.1,2.5-2.5,2.5c-0.5,0-0.8,0.4-0.8,0.8
	c0,2.1,3.5,3.4,7.7,3.9c0.3,2.6,2.4,4.6,5,4.6c2.6,0,4.8-2,5-4.6C23.7,22.9,27.2,21.6,27.2,19.5z M14.5,26.3c-1.6,0-3-1.1-3.3-2.7
	c1.1,0.1,2.2,0.1,3.3,0.1c1.1,0,2.2,0,3.3-0.1C17.5,25.1,16.1,26.3,14.5,26.3z M14.5,22.1C8.8,22.1,5.3,21,4,20.1
	c1.7-0.6,2.9-2.2,2.9-4v-3.4c0-4.2,3.4-7.6,7.6-7.6s7.6,3.4,7.6,7.6v3.4c0,1.9,1.2,3.4,2.9,4C23.7,21,20.2,22.1,14.5,22.1z"/>
</svg>
