<?xml version="1.0" encoding="utf-8"?>
<!-- Generator: Adobe Illustrator 19.2.1, SVG Export Plug-In . SVG Version: 6.00 Build 0)  -->
<svg version="1.1" id="Слой_1" xmlns="http://www.w3.org/2000/svg" xmlns:xlink="http://www.w3.org/1999/xlink" x="0px" y="0px"
	 viewBox="0 0 28 28" style="enable-background:new 0 0 28 28;" xml:space="preserve">
<style type="text/css">
	.st0{fill:#ff0000;}
</style>
<path class="st0" d="M26.1,8.2h-6.7c0.8-0.4,1.4-0.8,1.7-1.1c0.6-0.5,1-1.3,1.1-2.1c0.1-0.8-0.2-1.6-0.7-2.3
	c-1.1-1.3-3.1-1.4-4.4-0.4c-0.5,0.5-1.6,1.7-2.5,3c-0.2,0.3-0.3,0.5-0.4,0.8c-0.1-0.2-0.3-0.5-0.4-0.8c-0.9-1.3-1.9-2.6-2.5-3
	C9.9,1.3,7.8,1.5,6.8,2.8C6.2,3.4,6,4.2,6.1,5s0.5,1.6,1.1,2.1c0.3,0.2,0.9,0.6,1.7,1.1H2.2c-1.1,0-2,0.9-2,2v2.5c0,1.1,0.9,2,2,2
	h1.3v7.4c0,2.3,1.8,4.1,4.1,4.1h13.2c2.3,0,4.1-1.8,4.1-4.1v-7.4h1.3c1.1,0,2-0.9,2-2v-2.5C28.1,9.1,27.2,8.2,26.1,8.2z M18.1,3.6
	c0.3-0.2,0.6-0.3,1-0.3c0.4,0,0.8,0.2,1.1,0.5c0.3,0.3,0.4,0.7,0.3,1.1c0,0.4-0.2,0.7-0.5,1c-0.8,0.6-3.8,2.3-5.1,2.3
	C15.1,7.2,17.2,4.4,18.1,3.6z M8.2,5.9c-0.3-0.3-0.5-0.6-0.5-1c0-0.4,0.1-0.8,0.3-1.1c0.3-0.3,0.7-0.5,1.1-0.5c0.3,0,0.7,0.1,1,0.3
	c1,0.8,3,3.6,3.2,4.6C12,8.2,9,6.5,8.2,5.9z M1.8,12.8v-2.5C1.8,10,2,9.9,2.2,9.9h11.1v3.3H2.2C2,13.2,1.8,13,1.8,12.8z M5.1,22.2
	v-7.4h8.2v9.9H7.5C6.2,24.7,5.1,23.6,5.1,22.2z M23.2,22.2c0,1.4-1.1,2.5-2.5,2.5h-5.8v-9.9h8.2V22.2z M26.5,12.8
	c0,0.2-0.2,0.4-0.4,0.4H14.9V9.9h11.1c0.2,0,0.4,0.2,0.4,0.4V12.8z"/>
</svg>
